# Blender v2.69 (sub 0) OBJ File: 't34.blend'
# www.blender.org
mtllib T34body.mtl
o Cube_Cube.001
v -2.858137 0.000380 2.112663
v -2.858137 0.000380 -2.112663
v 2.858137 0.000380 -2.112663
v 2.858137 0.000380 2.112663
v -4.501485 1.000000 2.112663
v -4.501485 1.000000 -2.112663
v 4.258097 1.000000 -2.112663
v 4.258097 1.000000 2.112663
v -4.154824 1.577483 2.112663
v -4.154824 1.577483 -2.112663
v 4.154824 1.577483 -2.112663
v 4.154824 1.577483 2.112663
v -2.464294 1.667795 2.112663
v -2.464294 1.667795 -2.112663
v 3.669709 1.768213 -2.112663
v 3.669709 1.768213 2.112663
v -1.018940 2.295848 1.322554
v -1.018940 2.295848 -1.322554
v 2.655618 2.295226 -1.322554
v 2.655618 2.295226 1.322554
vt 1.000000 0.591213
vt 0.682311 0.591213
vt 0.682311 0.486824
vt 1.000000 0.486824
vt 0.205838 0.486824
vt 0.205838 0.000000
vt 0.364622 0.077804
vt 0.364622 0.395493
vt 0.211340 0.804513
vt 0.211340 0.486824
vt 0.364622 0.486824
vt 0.364622 0.804513
vt 0.570461 0.486824
vt 0.570461 0.000000
vt 0.729245 0.091331
vt 0.729245 0.409020
vt 0.682311 0.804513
vt 0.478731 0.481085
vt 0.478731 0.019266
vt 0.448434 0.454124
vt 0.464385 0.113219
vt 0.119431 0.804513
vt 0.119431 0.486824
vt 0.114108 0.467558
vt 0.114108 0.005740
vt 1.000000 0.682359
vt 0.682311 0.682359
vt 0.364721 0.397765
vt 0.364622 0.193547
vt 0.087416 0.804513
vt 0.087415 0.486824
vt 0.099763 0.373605
vt 0.083812 0.032700
vt 0.948561 0.169136
vt 0.948561 0.486824
vt 0.853793 0.486824
vt 0.853793 0.169136
vt 0.881188 0.682359
vt 0.881188 0.885987
vt 0.682311 0.885987
vt 0.000154 0.745107
vt 0.000154 0.546230
vt 0.000000 0.293278
vt 0.000099 0.089060
vt 0.729245 0.486824
vt 0.729245 0.169136
vt 0.853793 0.228541
vt 0.853793 0.427419
vn -0.519689 -0.854355 0.000000
vn 0.000000 0.000000 -1.000000
vn 0.581103 -0.813830 0.000000
vn 0.000000 0.000000 1.000000
vn 0.000000 -1.000000 0.000000
vn 0.984383 0.176040 0.000000
vn -0.857381 0.514683 0.000000
vn -0.008225 0.808361 0.588629
vn 0.365901 0.930654 0.000000
vn -0.053346 0.998576 0.000000
vn 0.000169 1.000000 0.000000
vn 0.461136 0.887329 0.000000
vn -0.008225 0.808361 -0.588629
vn -0.398533 0.917154 0.000000
g Cube_Cube.001_Material.001
usemtl Material.001
s off
f 5/1/1 6/2/1 2/3/1 1/4/1
f 6/5/2 7/6/2 3/7/2 2/8/2
f 7/9/3 8/10/3 4/11/3 3/12/3
f 8/13/4 5/14/4 1/15/4 4/16/4
f 1/17/5 2/12/5 3/11/5 4/3/5
f 5/14/4 8/13/4 12/18/4 9/19/4
f 9/19/4 12/18/4 16/20/4 13/21/4
f 8/10/6 7/9/6 11/22/6 12/23/6
f 7/6/2 6/5/2 10/24/2 11/25/2
f 6/2/7 5/1/7 9/26/7 10/27/7
f 13/21/8 16/20/8 20/28/8 17/29/8
f 12/23/9 11/22/9 15/30/9 16/31/9
f 11/25/2 10/24/2 14/32/2 15/33/2
f 10/34/10 9/35/10 13/36/10 14/37/10
f 20/27/11 19/38/11 18/39/11 17/40/11
f 16/31/12 15/30/12 19/41/12 20/42/12
f 15/33/13 14/32/13 18/43/13 19/44/13
f 14/45/14 13/46/14 17/47/14 18/48/14
