# Blender v2.69 (sub 0) OBJ File: 't34.blend'
# www.blender.org
mtllib T34barrel.mtl
o Cylinder_Cylinder.002
v -2.094424 3.216177 -0.299257
v -1.709448 3.216177 -0.278980
v -2.094424 3.157794 -0.293507
v -1.709448 3.161751 -0.273619
v -2.094424 3.101656 -0.276478
v -1.709448 3.109416 -0.257744
v -2.094424 3.049918 -0.248823
v -1.709448 3.061184 -0.231963
v -2.094424 3.004570 -0.211607
v -1.709448 3.018908 -0.197268
v -2.094424 2.967353 -0.166258
v -1.709448 2.984214 -0.154993
v -2.094424 2.939699 -0.114521
v -1.709448 2.958433 -0.106761
v -2.094424 2.922670 -0.058382
v -1.709448 2.942558 -0.054426
v -2.094424 2.916919 -0.000000
v -1.709448 2.937197 -0.000000
v -2.094424 2.922670 0.058382
v -1.709448 2.942558 0.054426
v -2.094424 2.939699 0.114521
v -1.709448 2.958433 0.106761
v -2.094424 2.967353 0.166258
v -1.709448 2.984214 0.154993
v -2.094424 3.004570 0.211607
v -1.709448 3.018908 0.197268
v -2.094424 3.049918 0.248823
v -1.709448 3.061184 0.231963
v -2.094424 3.101656 0.276478
v -1.709448 3.109416 0.257744
v -2.094424 3.157795 0.293507
v -1.709448 3.161751 0.273619
v -2.094424 3.216177 0.299257
v -1.709448 3.216177 0.278980
v -2.094424 3.274559 0.293507
v -1.709448 3.270603 0.273619
v -2.094424 3.330698 0.276478
v -1.709448 3.322938 0.257744
v -2.094424 3.382435 0.248823
v -1.709448 3.371170 0.231963
v -2.094424 3.427784 0.211607
v -1.709448 3.413445 0.197268
v -2.094424 3.465000 0.166258
v -1.709448 3.448140 0.154993
v -2.094424 3.492655 0.114521
v -1.709448 3.473921 0.106761
v -2.094424 3.509684 0.058382
v -1.709448 3.489796 0.054426
v -2.094424 3.515434 -0.000000
v -1.709448 3.495157 -0.000000
v -2.094424 3.509684 -0.058383
v -1.709448 3.489796 -0.054427
v -2.094424 3.492654 -0.114521
v -1.709448 3.473920 -0.106761
v -2.094424 3.465000 -0.166259
v -1.709448 3.448140 -0.154993
v -2.094424 3.427783 -0.211607
v -1.709448 3.413445 -0.197269
v -2.094424 3.382435 -0.248824
v -1.709448 3.371169 -0.231963
v -2.094424 3.330697 -0.276478
v -1.709448 3.322937 -0.257744
v -2.094424 3.274559 -0.293507
v -1.709448 3.270603 -0.273619
v -2.231969 3.216177 -0.134764
v -2.231969 3.189886 -0.132174
v -2.231969 3.164605 -0.124506
v -2.231969 3.141306 -0.112052
v -2.231969 3.120884 -0.095292
v -2.231969 3.104125 -0.074871
v -2.231969 3.091671 -0.051572
v -2.231969 3.084002 -0.026291
v -2.231969 3.081413 -0.000000
v -2.231969 3.084002 0.026291
v -2.231969 3.091671 0.051572
v -2.231969 3.104125 0.074871
v -2.231969 3.120884 0.095292
v -2.231969 3.141306 0.112052
v -2.231969 3.164605 0.124506
v -2.231969 3.189886 0.132174
v -2.231969 3.216177 0.134764
v -2.231969 3.242468 0.132174
v -2.231969 3.267749 0.124506
v -2.231969 3.291048 0.112052
v -2.231969 3.311469 0.095292
v -2.231969 3.328229 0.074871
v -2.231969 3.340683 0.051572
v -2.231969 3.348351 0.026291
v -2.231969 3.350941 -0.000000
v -2.231969 3.348351 -0.026291
v -2.231969 3.340682 -0.051572
v -2.231969 3.328229 -0.074871
v -2.231969 3.311469 -0.095293
v -2.231969 3.291047 -0.112052
v -2.231969 3.267748 -0.124506
v -2.231969 3.242468 -0.132175
v -6.656790 3.216177 -0.094941
v -6.656790 3.197654 -0.093117
v -6.656790 3.179844 -0.087714
v -6.656790 3.163430 -0.078941
v -6.656790 3.149043 -0.067134
v -6.656790 3.137236 -0.052746
v -6.656790 3.128462 -0.036332
v -6.656790 3.123060 -0.018522
v -6.656790 3.121235 -0.000000
v -6.656790 3.123060 0.018522
v -6.656790 3.128462 0.036332
v -6.656790 3.137236 0.052746
v -6.656790 3.149043 0.067134
v -6.656790 3.163430 0.078941
v -6.656790 3.179844 0.087714
v -6.656790 3.197654 0.093117
v -6.656790 3.216177 0.094941
v -6.656790 3.234699 0.093117
v -6.656790 3.252509 0.087714
v -6.656790 3.268923 0.078941
v -6.656790 3.283310 0.067134
v -6.656790 3.295117 0.052746
v -6.656790 3.303891 0.036332
v -6.656790 3.309293 0.018522
v -6.656790 3.311118 -0.000000
v -6.656790 3.309293 -0.018522
v -6.656790 3.303891 -0.036333
v -6.656790 3.295117 -0.052747
v -6.656790 3.283310 -0.067134
v -6.656790 3.268923 -0.078941
v -6.656790 3.252509 -0.087714
v -6.656790 3.234698 -0.093117
vt 0.260156 0.334996
vt 0.347259 0.334547
vt 0.347313 0.346672
vt 0.260215 0.348002
vt 0.347420 0.358093
vt 0.260329 0.360254
vt 0.347575 0.368372
vt 0.260496 0.371280
vt 0.347772 0.377113
vt 0.260707 0.380656
vt 0.173077 0.297010
vt 0.260156 0.299918
vt 0.260001 0.310197
vt 0.172911 0.308036
vt 0.259895 0.321618
vt 0.172796 0.320287
vt 0.259840 0.333743
vt 0.172738 0.333293
vt 0.259840 0.346105
vt 0.172738 0.346554
vt 0.259895 0.358230
vt 0.172796 0.359560
vt 0.260001 0.369651
vt 0.172911 0.371812
vt 0.260156 0.379930
vt 0.173077 0.382838
vt 0.347222 0.276075
vt 0.260156 0.272532
vt 0.260354 0.263790
vt 0.347433 0.266698
vt 0.260509 0.253511
vt 0.347600 0.255672
vt 0.260615 0.242090
vt 0.347714 0.243421
vt 0.260670 0.229965
vt 0.347772 0.230415
vt 0.260670 0.217603
vt 0.347772 0.217154
vt 0.260615 0.205478
vt 0.347714 0.204148
vt 0.260509 0.194057
vt 0.347600 0.191896
vt 0.260354 0.183778
vt 0.347433 0.180870
vt 0.260156 0.175037
vt 0.347222 0.171493
vt 0.047560 0.306133
vt 0.134640 0.309041
vt 0.134485 0.319320
vt 0.047394 0.317159
vt 0.134378 0.330741
vt 0.047279 0.329411
vt 0.134324 0.342866
vt 0.047221 0.342417
vt 0.134324 0.355228
vt 0.047221 0.355677
vt 0.134378 0.367353
vt 0.047279 0.368684
vt 0.134485 0.378774
vt 0.047394 0.380935
vt 0.134640 0.389053
vt 0.047560 0.391961
vt 0.260707 0.276075
vt 0.347772 0.279618
vt 0.347575 0.288360
vt 0.260496 0.285452
vt 0.347420 0.298638
vt 0.260329 0.296478
vt 0.347313 0.310060
vt 0.260215 0.308729
vt 0.191217 0.297010
vt 0.179092 0.294598
vt 0.167671 0.289867
vt 0.157392 0.282999
vt 0.148651 0.274258
vt 0.141782 0.263979
vt 0.137052 0.252558
vt 0.134640 0.240433
vt 0.134640 0.228071
vt 0.137052 0.215946
vt 0.141782 0.204525
vt 0.148650 0.194246
vt 0.157392 0.185504
vt 0.167671 0.178636
vt 0.179092 0.173905
vt 0.191217 0.171493
vt 0.203579 0.171493
vt 0.215704 0.173905
vt 0.227125 0.178636
vt 0.237404 0.185504
vt 0.246146 0.194246
vt 0.253014 0.204524
vt 0.257745 0.215946
vt 0.260156 0.228071
vt 0.260156 0.240433
vt 0.257745 0.252558
vt 0.253014 0.263979
vt 0.246146 0.274258
vt 0.237404 0.282999
vt 0.227125 0.289867
vt 0.215704 0.294598
vt 0.203579 0.297010
vt 0.260156 0.321735
vt 0.347259 0.322185
vt 0.007662 0.206925
vt 0.015029 0.195899
vt 0.043772 0.219488
vt 0.040454 0.224453
vt 0.999830 0.166528
vt 0.999905 0.171493
vt 0.000108 0.165783
vt 0.000055 0.162285
vt 0.073950 0.306133
vt 0.060689 0.306133
vt 0.064334 0.269129
vt 0.070306 0.269129
vt 0.035432 0.179155
vt 0.047683 0.174080
vt 0.058477 0.209662
vt 0.052960 0.211947
vt 0.134640 0.232183
vt 0.134640 0.245444
vt 0.097636 0.241799
vt 0.097636 0.235827
vt 0.035432 0.298471
vt 0.024406 0.291104
vt 0.047994 0.262361
vt 0.052960 0.265679
vt 0.073950 0.171493
vt 0.086956 0.174080
vt 0.076163 0.209662
vt 0.070306 0.208497
vt 0.007662 0.270701
vt 0.002587 0.258450
vt 0.038169 0.247656
vt 0.040454 0.253173
vt 0.126978 0.270701
vt 0.119611 0.281727
vt 0.090868 0.258138
vt 0.094185 0.253173
vt 0.110234 0.186523
vt 0.119611 0.195899
vt 0.090868 0.219488
vt 0.086645 0.215265
vt 0.000000 0.232183
vt 0.002587 0.219177
vt 0.038169 0.229970
vt 0.037004 0.235827
vt 0.099208 0.298471
vt 0.086956 0.303546
vt 0.076163 0.267964
vt 0.081680 0.265679
vt 0.024406 0.186522
vt 0.047994 0.215265
vt 0.126978 0.206925
vt 0.132053 0.219177
vt 0.096471 0.229970
vt 0.094185 0.224453
vt 0.047683 0.303546
vt 0.058477 0.267964
vt 0.060690 0.171493
vt 0.064334 0.208497
vt 0.132053 0.258450
vt 0.096471 0.247656
vt 0.015029 0.281727
vt 0.043772 0.258138
vt 0.099208 0.179155
vt 0.081680 0.211947
vt 0.000000 0.245444
vt 0.037004 0.241799
vt 0.110234 0.291104
vt 0.086645 0.262361
vt 0.004768 0.313876
vt 0.007743 0.310901
vt 0.011241 0.308564
vt 0.015128 0.306954
vt 0.019254 0.306133
vt 0.023461 0.306133
vt 0.027587 0.306954
vt 0.031474 0.308564
vt 0.034972 0.310901
vt 0.037947 0.313876
vt 0.040285 0.317374
vt 0.041895 0.321261
vt 0.042715 0.325387
vt 0.042715 0.329594
vt 0.041895 0.333721
vt 0.040285 0.337607
vt 0.037947 0.341105
vt 0.034972 0.344080
vt 0.031474 0.346418
vt 0.027587 0.348028
vt 0.023461 0.348848
vt 0.019254 0.348848
vt 0.015128 0.348028
vt 0.011241 0.346418
vt 0.007743 0.344080
vt 0.004768 0.341105
vt 0.002431 0.337607
vt 0.000821 0.333721
vt 0.000000 0.329594
vt 0.000000 0.325387
vt 0.000821 0.321261
vt 0.002431 0.317374
vt 0.999905 0.094192
vt 0.999830 0.099157
vt 0.000055 0.103401
vt 0.000108 0.099903
vt 0.000248 0.026534
vt 0.000248 0.020562
vt 1.000000 0.021444
vt 1.000000 0.025651
vt 0.999752 0.155154
vt 0.999778 0.161011
vt 0.000019 0.158398
vt 0.000000 0.154272
vt 0.000170 0.056284
vt 0.000095 0.051319
vt 0.999892 0.057029
vt 0.999945 0.060527
vt 0.000170 0.037908
vt 0.000222 0.032391
vt 0.999981 0.029778
vt 0.999945 0.033665
vt 0.999778 0.143325
vt 0.999752 0.149182
vt 0.000000 0.150064
vt 0.000019 0.145938
vt 0.000248 0.067658
vt 0.000222 0.061801
vt 0.999982 0.064414
vt 1.000000 0.068540
vt 0.000000 0.047096
vt 0.000095 0.042873
vt 0.999892 0.037163
vt 0.999825 0.040137
vt 0.000248 0.073630
vt 1.000000 0.072747
vt 0.999905 0.132843
vt 0.999830 0.137808
vt 0.000055 0.142051
vt 0.000108 0.138553
vt 0.999778 0.122360
vt 0.999830 0.127877
vt 0.000055 0.123634
vt 0.000019 0.119747
vt 0.000170 0.085004
vt 0.000222 0.079487
vt 0.999981 0.076874
vt 0.999945 0.080761
vt 0.000170 0.009188
vt 0.000095 0.004223
vt 0.999892 0.009933
vt 0.999945 0.013431
vt 0.999752 0.110531
vt 0.999752 0.116503
vt 0.000000 0.115621
vt 0.000000 0.111414
vt 0.000000 0.094192
vt 0.000095 0.089969
vt 0.999892 0.084259
vt 0.999825 0.087233
vt 0.000222 0.014705
vt 0.999982 0.017318
vt 0.999778 0.104674
vt 0.000019 0.107288
vt 0.999825 0.054054
vt 0.000108 0.127132
vt 0.000000 0.000000
vt 0.999825 0.006958
vn 0.052347 -0.097882 -0.993820
vn 0.052347 -0.289889 -0.955628
vn 0.052347 -0.470749 -0.880713
vn 0.052347 -0.633526 -0.771949
vn 0.052347 -0.771949 -0.633526
vn 0.052347 -0.880713 -0.470749
vn 0.052347 -0.955628 -0.289887
vn 0.052347 -0.993820 -0.097886
vn 0.052347 -0.993820 0.097886
vn 0.052347 -0.955628 0.289887
vn 0.052347 -0.880713 0.470748
vn 0.052347 -0.771949 0.633526
vn 0.052347 -0.633526 0.771948
vn 0.052347 -0.470749 0.880713
vn 0.052347 -0.289887 0.955628
vn 0.052347 -0.097883 0.993820
vn 0.052347 0.097883 0.993820
vn 0.052347 0.289888 0.955628
vn 0.052347 0.470752 0.880711
vn 0.052346 0.633521 0.771953
vn 0.052347 0.771954 0.633519
vn 0.052346 0.880711 0.470752
vn 0.052346 0.955628 0.289887
vn 0.052346 0.993820 0.097880
vn 0.052347 0.993820 -0.097886
vn 0.052347 0.955628 -0.289887
vn 0.052347 0.880711 -0.470753
vn 0.052347 0.771951 -0.633523
vn 0.052347 0.633523 -0.771951
vn 0.052347 0.470748 -0.880714
vn 1.000000 0.000000 -0.000000
vn 0.052347 0.097882 -0.993820
vn 0.052347 0.289886 -0.955629
vn -0.765621 0.615593 0.186736
vn -0.008956 0.881882 -0.471384
vn -0.765621 -0.497272 0.408100
vn -0.765621 0.615592 -0.186736
vn -0.765621 -0.408099 -0.497272
vn -0.765624 -0.186737 0.615588
vn -0.765622 0.408099 -0.497272
vn -0.765621 0.186740 0.615592
vn -0.765621 -0.615591 -0.186740
vn -0.765621 0.063055 -0.640194
vn -0.765622 0.497268 0.408102
vn -0.765621 -0.615591 0.186740
vn -0.765621 0.640194 0.063058
vn -0.765623 -0.186741 -0.615589
vn -0.765621 -0.408100 0.497271
vn -0.765621 0.567332 -0.303248
vn -0.765622 -0.497270 -0.408100
vn -0.765620 -0.063055 0.640195
vn -0.765621 0.303243 -0.567334
vn -0.765622 0.303245 0.567331
vn -0.765621 -0.063055 -0.640195
vn -0.765621 -0.640194 -0.063055
vn -0.765621 0.567334 0.303245
vn -0.765621 -0.567334 0.303243
vn -0.765620 0.640195 -0.063058
vn -0.765620 -0.303243 -0.567335
vn -0.765619 -0.303244 0.567336
vn -0.765622 0.497266 -0.408105
vn -0.765621 0.063055 0.640195
vn -0.765622 -0.567333 -0.303243
vn -0.765622 0.186736 -0.615591
vn -0.765621 0.408100 0.497271
vn -0.765621 -0.640194 0.063055
vn -1.000000 0.000007 0.000000
vn -0.008956 -0.772982 -0.634365
vn -0.008956 -0.098014 0.995145
vn -0.008956 0.995144 -0.098020
vn -0.008956 -0.471375 -0.881887
vn -0.008956 -0.471375 0.881887
vn -0.008956 0.956906 0.290260
vn -0.008956 -0.098014 -0.995145
vn -0.008956 -0.772982 0.634365
vn -0.008956 0.098011 -0.995145
vn -0.008956 0.772968 0.634382
vn -0.008956 -0.956903 0.290269
vn -0.008956 0.471379 -0.881885
vn -0.008956 0.471376 0.881887
vn -0.008956 -0.995145 -0.098010
vn -0.008956 0.772972 -0.634377
vn -0.008956 0.098013 0.995145
vn -0.008956 -0.881887 -0.471377
vn -0.008956 0.956906 -0.290261
vn -0.008956 -0.634363 -0.772983
vn -0.008956 -0.290277 0.956901
vn -0.008956 0.995144 0.098020
vn -0.008956 -0.290277 -0.956901
vn -0.008956 -0.634364 0.772983
vn -0.008956 0.881887 0.471376
vn -0.008956 -0.881887 0.471376
vn -0.008956 0.290275 -0.956901
vn -0.008956 0.634373 0.772975
vn -0.008956 -0.995145 0.098010
vn -0.008956 0.634363 -0.772983
vn -0.008956 0.290274 0.956902
vn -0.008956 -0.956903 -0.290269
g Cylinder_Cylinder.002_barrelmat
usemtl barrelmat
s off
f 1/1/1 2/2/1 4/3/1 3/4/1
f 3/4/2 4/3/2 6/5/2 5/6/2
f 5/6/3 6/5/3 8/7/3 7/8/3
f 7/8/4 8/7/4 10/9/4 9/10/4
f 9/11/5 10/12/5 12/13/5 11/14/5
f 11/14/6 12/13/6 14/15/6 13/16/6
f 13/16/7 14/15/7 16/17/7 15/18/7
f 15/18/8 16/17/8 18/19/8 17/20/8
f 17/20/9 18/19/9 20/21/9 19/22/9
f 19/22/10 20/21/10 22/23/10 21/24/10
f 21/24/11 22/23/11 24/25/11 23/26/11
f 23/27/12 24/28/12 26/29/12 25/30/12
f 25/30/13 26/29/13 28/31/13 27/32/13
f 27/32/14 28/31/14 30/33/14 29/34/14
f 29/34/15 30/33/15 32/35/15 31/36/15
f 31/36/16 32/35/16 34/37/16 33/38/16
f 33/38/17 34/37/17 36/39/17 35/40/17
f 35/40/18 36/39/18 38/41/18 37/42/18
f 37/42/19 38/41/19 40/43/19 39/44/19
f 39/44/20 40/43/20 42/45/20 41/46/20
f 41/47/21 42/48/21 44/49/21 43/50/21
f 43/50/22 44/49/22 46/51/22 45/52/22
f 45/52/23 46/51/23 48/53/23 47/54/23
f 47/54/24 48/53/24 50/55/24 49/56/24
f 49/56/25 50/55/25 52/57/25 51/58/25
f 51/58/26 52/57/26 54/59/26 53/60/26
f 53/60/27 54/59/27 56/61/27 55/62/27
f 55/63/28 56/64/28 58/65/28 57/66/28
f 57/66/29 58/65/29 60/67/29 59/68/29
f 59/68/30 60/67/30 62/69/30 61/70/30
f 4/71/31 2/72/31 64/73/31 62/74/31 60/75/31 58/76/31 56/77/31 54/78/31 52/79/31 50/80/31 48/81/31 46/82/31 44/83/31 42/84/31 40/85/31 38/86/31 36/87/31 34/88/31 32/89/31 30/90/31 28/91/31 26/92/31 24/93/31 22/94/31 20/95/31 18/96/31 16/97/31 14/98/31 12/99/31 10/100/31 8/101/31 6/102/31
f 63/103/32 64/104/32 2/2/32 1/1/32
f 61/70/33 62/69/33 64/104/33 63/103/33
f 45/105/34 47/106/34 88/107/34 87/108/34
f 91/109/35 92/110/35 124/111/35 123/112/35
f 23/113/36 25/114/36 77/115/36 76/116/36
f 51/117/37 53/118/37 91/119/37 90/120/37
f 7/121/38 9/122/38 69/123/38 68/124/38
f 29/125/39 31/126/39 80/127/39 79/128/39
f 57/129/40 59/130/40 94/131/40 93/132/40
f 35/133/41 37/134/41 83/135/41 82/136/41
f 13/137/42 15/138/42 72/139/42 71/140/42
f 63/141/43 1/142/43 65/143/43 96/144/43
f 41/145/44 43/146/44 86/147/44 85/148/44
f 19/149/45 21/150/45 75/151/45 74/152/45
f 47/106/46 49/153/46 89/154/46 88/107/46
f 3/155/47 5/156/47 67/157/47 66/158/47
f 25/114/48 27/159/48 78/160/48 77/115/48
f 53/118/49 55/161/49 92/162/49 91/119/49
f 9/122/50 11/163/50 70/164/50 69/123/50
f 31/126/51 33/165/51 81/166/51 80/127/51
f 59/130/52 61/167/52 95/168/52 94/131/52
f 37/134/53 39/169/53 84/170/53 83/135/53
f 1/142/54 3/155/54 66/158/54 65/143/54
f 15/138/55 17/171/55 73/172/55 72/139/55
f 43/146/56 45/105/56 87/108/56 86/147/56
f 21/150/57 23/113/57 76/116/57 75/151/57
f 49/153/58 51/117/58 90/120/58 89/154/58
f 5/156/59 7/121/59 68/124/59 67/157/59
f 27/159/60 29/125/60 79/128/60 78/160/60
f 55/161/61 57/129/61 93/132/61 92/162/61
f 33/165/62 35/133/62 82/136/62 81/166/62
f 11/163/63 13/137/63 71/140/63 70/164/63
f 61/167/64 63/141/64 96/144/64 95/168/64
f 39/169/65 41/145/65 85/148/65 84/170/65
f 17/171/66 19/149/66 74/152/66 73/172/66
f 97/173/67 98/174/67 99/175/67 100/176/67 101/177/67 102/178/67 103/179/67 104/180/67 105/181/67 106/182/67 107/183/67 108/184/67 109/185/67 110/186/67 111/187/67 112/188/67 113/189/67 114/190/67 115/191/67 116/192/67 117/193/67 118/194/67 119/195/67 120/196/67 121/197/67 122/198/67 123/199/67 124/200/67 125/201/67 126/202/67 127/203/67 128/204/67
f 69/205/68 70/206/68 102/207/68 101/208/68
f 80/209/69 81/210/69 113/211/69 112/212/69
f 89/213/70 90/214/70 122/215/70 121/216/70
f 67/217/71 68/218/71 100/219/71 99/220/71
f 78/221/72 79/222/72 111/223/72 110/224/72
f 87/225/73 88/226/73 120/227/73 119/228/73
f 65/229/74 66/230/74 98/231/74 97/232/74
f 76/233/75 77/234/75 109/235/75 108/236/75
f 96/237/76 65/229/76 97/232/76 128/238/76
f 85/239/77 86/240/77 118/241/77 117/242/77
f 74/243/78 75/244/78 107/245/78 106/246/78
f 94/247/79 95/248/79 127/249/79 126/250/79
f 83/251/80 84/252/80 116/253/80 115/254/80
f 72/255/81 73/256/81 105/257/81 104/258/81
f 92/259/82 93/260/82 125/261/82 124/262/82
f 81/210/83 82/263/83 114/264/83 113/211/83
f 70/206/84 71/265/84 103/266/84 102/207/84
f 90/214/85 91/109/85 123/112/85 122/215/85
f 68/218/86 69/233/86 101/267/86 100/219/86
f 79/222/87 80/209/87 112/212/87 111/223/87
f 88/226/88 89/213/88 121/216/88 120/227/88
f 66/230/89 67/217/89 99/220/89 98/231/89
f 77/234/90 78/221/90 110/224/90 109/235/90
f 86/240/91 87/225/91 119/228/91 118/241/91
f 75/244/92 76/239/92 108/268/92 107/245/92
f 95/248/93 96/237/93 128/238/93 127/249/93
f 84/252/94 85/269/94 117/270/94 116/253/94
f 73/256/95 74/243/95 106/246/95 105/257/95
f 93/260/96 94/247/96 126/250/96 125/261/96
f 82/263/97 83/251/97 115/254/97 114/264/97
f 71/265/98 72/255/98 104/258/98 103/266/98
